HIERARCHY
ROOT mixamorig:Hips
{
	OFFSET -0.000008 104.274872 1.554316
	CHANNELS 6 Xposition Yposition Zposition Xrotation Yrotation Zrotation
	JOINT mixamorig:Spine
	{
		OFFSET -0.000005 10.181595 0.131519
		CHANNELS 6 Xposition Yposition Zposition Xrotation Yrotation Zrotation
		JOINT mixamorig:Spine1
		{
			OFFSET -0.000000 9.893959 -1.470707
			CHANNELS 6 Xposition Yposition Zposition Xrotation Yrotation Zrotation
			JOINT mixamorig:Spine2
			{
				OFFSET -0.000000 9.220757 -1.370641
				CHANNELS 6 Xposition Yposition Zposition Xrotation Yrotation Zrotation
				JOINT mixamorig:Neck
				{
					OFFSET 0.000001 16.740417 -2.049036
					CHANNELS 6 Xposition Yposition Zposition Xrotation Yrotation Zrotation
					JOINT mixamorig:Head
					{
						OFFSET 0.000000 9.617874 1.685006
						CHANNELS 6 Xposition Yposition Zposition Xrotation Yrotation Zrotation
						JOINT mixamorig:HeadTop_End
						{
							OFFSET 0.000002 22.037354 7.501101
							CHANNELS 6 Xposition Yposition Zposition Xrotation Yrotation Zrotation
							End Site
							{
								OFFSET 0.000168 2310.654297 -282.823242
							}
						}
					}
				}
				JOINT mixamorig:RightShoulder
				{
					OFFSET -4.569970 11.014908 -2.160885
					CHANNELS 6 Xposition Yposition Zposition Xrotation Yrotation Zrotation
					JOINT mixamorig:RightArm
					{
						OFFSET -10.592851 -0.524811 -2.232101
						CHANNELS 6 Xposition Yposition Zposition Xrotation Yrotation Zrotation
						JOINT mixamorig:RightForeArm
						{
							OFFSET -27.841511 0.000031 -0.000004
							CHANNELS 6 Xposition Yposition Zposition Xrotation Yrotation Zrotation
							JOINT mixamorig:RightHand
							{
								OFFSET -28.328831 -0.000015 0.000015
								CHANNELS 6 Xposition Yposition Zposition Xrotation Yrotation Zrotation
								JOINT mixamorig:RightHandThumb1
								{
									OFFSET -2.464806 -1.573990 2.681852
									CHANNELS 6 Xposition Yposition Zposition Xrotation Yrotation Zrotation
									JOINT mixamorig:RightHandThumb2
									{
										OFFSET -3.215179 -1.872803 1.924282
										CHANNELS 6 Xposition Yposition Zposition Xrotation Yrotation Zrotation
										JOINT mixamorig:RightHandThumb3
										{
											OFFSET -2.654831 -1.527969 1.512609
											CHANNELS 6 Xposition Yposition Zposition Xrotation Yrotation Zrotation
											JOINT mixamorig:RightHandThumb4
											{
												OFFSET -2.018814 -1.152008 1.108052
												CHANNELS 6 Xposition Yposition Zposition Xrotation Yrotation Zrotation
												End Site
												{
													OFFSET -188.809540 -114.533607 132.431396
												}
											}
										}
									}
								}
								JOINT mixamorig:RightHandIndex1
								{
									OFFSET -9.108284 -0.517868 2.259835
									CHANNELS 6 Xposition Yposition Zposition Xrotation Yrotation Zrotation
									JOINT mixamorig:RightHandIndex2
									{
										OFFSET -3.699989 0.000000 0.001215
										CHANNELS 6 Xposition Yposition Zposition Xrotation Yrotation Zrotation
										JOINT mixamorig:RightHandIndex3
										{
											OFFSET -2.850006 0.000031 -0.000522
											CHANNELS 6 Xposition Yposition Zposition Xrotation Yrotation Zrotation
											JOINT mixamorig:RightHandIndex4
											{
												OFFSET -2.772186 -0.000015 -0.000020
												CHANNELS 6 Xposition Yposition Zposition Xrotation Yrotation Zrotation
												End Site
												{
													OFFSET -277.218445 0.000000 -0.050231
												}
											}
										}
									}
								}
								JOINT mixamorig:RightHandMiddle1
								{
									OFFSET -9.532516 -0.000031 -0.000023
									CHANNELS 6 Xposition Yposition Zposition Xrotation Yrotation Zrotation
									JOINT mixamorig:RightHandMiddle2
									{
										OFFSET -3.700005 -0.000015 0.003713
										CHANNELS 6 Xposition Yposition Zposition Xrotation Yrotation Zrotation
										JOINT mixamorig:RightHandMiddle3
										{
											OFFSET -2.949974 0.000015 -0.002054
											CHANNELS 6 Xposition Yposition Zposition Xrotation Yrotation Zrotation
											JOINT mixamorig:RightHandMiddle4
											{
												OFFSET -2.946640 0.000000 -0.000156
												CHANNELS 6 Xposition Yposition Zposition Xrotation Yrotation Zrotation
												End Site
												{
													OFFSET -294.664337 0.000000 -0.113670
												}
											}
										}
									}
								}
								JOINT mixamorig:RightHandRing1
								{
									OFFSET -9.103600 -0.043076 -1.865134
									CHANNELS 6 Xposition Yposition Zposition Xrotation Yrotation Zrotation
									JOINT mixamorig:RightHandRing2
									{
										OFFSET -3.379288 0.000000 -0.001055
										CHANNELS 6 Xposition Yposition Zposition Xrotation Yrotation Zrotation
										JOINT mixamorig:RightHandRing3
										{
											OFFSET -2.889687 -0.000015 0.000379
											CHANNELS 6 Xposition Yposition Zposition Xrotation Yrotation Zrotation
											JOINT mixamorig:RightHandRing4
											{
												OFFSET -2.638809 -0.000015 0.000941
												CHANNELS 6 Xposition Yposition Zposition Xrotation Yrotation Zrotation
												End Site
												{
													OFFSET -263.880371 0.000000 0.516020
												}
											}
										}
									}
								}
								JOINT mixamorig:RightHandPinky1
								{
									OFFSET -8.076683 -0.486710 -3.806280
									CHANNELS 6 Xposition Yposition Zposition Xrotation Yrotation Zrotation
									JOINT mixamorig:RightHandPinky2
									{
										OFFSET -3.600014 -0.000015 -0.003747
										CHANNELS 6 Xposition Yposition Zposition Xrotation Yrotation Zrotation
										JOINT mixamorig:RightHandPinky3
										{
											OFFSET -2.099983 0.000000 -0.005739
											CHANNELS 6 Xposition Yposition Zposition Xrotation Yrotation Zrotation
											JOINT mixamorig:RightHandPinky4
											{
												OFFSET -2.115768 -0.000031 -0.003680
												CHANNELS 6 Xposition Yposition Zposition Xrotation Yrotation Zrotation
												End Site
												{
													OFFSET -211.577087 0.000000 -0.350686
												}
											}
										}
									}
								}
							}
						}
					}
				}
				JOINT mixamorig:LeftShoulder
				{
					OFFSET 4.570447 11.014725 -2.160855
					CHANNELS 6 Xposition Yposition Zposition Xrotation Yrotation Zrotation
					JOINT mixamorig:LeftArm
					{
						OFFSET 10.592371 -0.524597 -2.232119
						CHANNELS 6 Xposition Yposition Zposition Xrotation Yrotation Zrotation
						JOINT mixamorig:LeftForeArm
						{
							OFFSET 27.841532 -0.000031 0.000026
							CHANNELS 6 Xposition Yposition Zposition Xrotation Yrotation Zrotation
							JOINT mixamorig:LeftHand
							{
								OFFSET 28.328846 -0.000061 0.000022
								CHANNELS 6 Xposition Yposition Zposition Xrotation Yrotation Zrotation
								JOINT mixamorig:LeftHandThumb1
								{
									OFFSET 2.466141 -1.576172 2.681732
									CHANNELS 6 Xposition Yposition Zposition Xrotation Yrotation Zrotation
									JOINT mixamorig:LeftHandThumb2
									{
										OFFSET 3.217812 -1.872070 1.916482
										CHANNELS 6 Xposition Yposition Zposition Xrotation Yrotation Zrotation
										JOINT mixamorig:LeftHandThumb3
										{
											OFFSET 2.656029 -1.528778 1.514513
											CHANNELS 6 Xposition Yposition Zposition Xrotation Yrotation Zrotation
											JOINT mixamorig:LeftHandThumb4
											{
												OFFSET 2.020889 -1.154053 1.115139
												CHANNELS 6 Xposition Yposition Zposition Xrotation Yrotation Zrotation
												End Site
												{
													OFFSET 190.885437 -115.081749 130.048782
												}
											}
										}
									}
								}
								JOINT mixamorig:LeftHandIndex1
								{
									OFFSET 9.109314 -0.518021 2.259871
									CHANNELS 6 Xposition Yposition Zposition Xrotation Yrotation Zrotation
									JOINT mixamorig:LeftHandIndex2
									{
										OFFSET 3.699989 0.000000 -0.000322
										CHANNELS 6 Xposition Yposition Zposition Xrotation Yrotation Zrotation
										JOINT mixamorig:LeftHandIndex3
										{
											OFFSET 2.850006 0.000000 0.000352
											CHANNELS 6 Xposition Yposition Zposition Xrotation Yrotation Zrotation
											JOINT mixamorig:LeftHandIndex4
											{
												OFFSET 2.774864 -0.000031 -0.000027
												CHANNELS 6 Xposition Yposition Zposition Xrotation Yrotation Zrotation
												End Site
												{
													OFFSET 277.486267 0.000000 -0.009857
												}
											}
										}
									}
								}
								JOINT mixamorig:LeftHandMiddle1
								{
									OFFSET 9.533394 0.000061 0.000044
									CHANNELS 6 Xposition Yposition Zposition Xrotation Yrotation Zrotation
									JOINT mixamorig:LeftHandMiddle2
									{
										OFFSET 3.699989 -0.000015 -0.000231
										CHANNELS 6 Xposition Yposition Zposition Xrotation Yrotation Zrotation
										JOINT mixamorig:LeftHandMiddle3
										{
											OFFSET 2.949997 -0.000015 -0.000059
											CHANNELS 6 Xposition Yposition Zposition Xrotation Yrotation Zrotation
											JOINT mixamorig:LeftHandMiddle4
											{
												OFFSET 2.952896 0.000031 0.000063
												CHANNELS 6 Xposition Yposition Zposition Xrotation Yrotation Zrotation
												End Site
												{
													OFFSET 295.289337 0.000000 0.022810
												}
											}
										}
									}
								}
								JOINT mixamorig:LeftHandRing1
								{
									OFFSET 9.104523 -0.042999 -1.865074
									CHANNELS 6 Xposition Yposition Zposition Xrotation Yrotation Zrotation
									JOINT mixamorig:LeftHandRing2
									{
										OFFSET 3.150009 -0.000031 0.000043
										CHANNELS 6 Xposition Yposition Zposition Xrotation Yrotation Zrotation
										JOINT mixamorig:LeftHandRing3
										{
											OFFSET 2.949982 -0.000015 0.000040
											CHANNELS 6 Xposition Yposition Zposition Xrotation Yrotation Zrotation
											JOINT mixamorig:LeftHandRing4
											{
												OFFSET 2.644348 0.000000 0.000057
												CHANNELS 6 Xposition Yposition Zposition Xrotation Yrotation Zrotation
												End Site
												{
													OFFSET 264.434631 0.000000 0.012105
												}
											}
										}
									}
								}
								JOINT mixamorig:LeftHandPinky1
								{
									OFFSET 8.077789 -0.486847 -3.806259
									CHANNELS 6 Xposition Yposition Zposition Xrotation Yrotation Zrotation
									JOINT mixamorig:LeftHandPinky2
									{
										OFFSET 3.599953 0.000031 0.014727
										CHANNELS 6 Xposition Yposition Zposition Xrotation Yrotation Zrotation
										JOINT mixamorig:LeftHandPinky3
										{
											OFFSET 2.100021 0.000015 0.007705
											CHANNELS 6 Xposition Yposition Zposition Xrotation Yrotation Zrotation
											JOINT mixamorig:LeftHandPinky4
											{
												OFFSET 2.125504 0.000031 0.007517
												CHANNELS 6 Xposition Yposition Zposition Xrotation Yrotation Zrotation
												End Site
												{
													OFFSET 212.550781 0.000000 0.625752
												}
											}
										}
									}
								}
							}
						}
					}
				}
			}
		}
	}
	JOINT mixamorig:RightUpLeg
	{
		OFFSET -8.207787 -6.751648 -1.599560
		CHANNELS 6 Xposition Yposition Zposition Xrotation Yrotation Zrotation
		JOINT mixamorig:RightLeg
		{
			OFFSET -0.000002 -44.370117 0.345942
			CHANNELS 6 Xposition Yposition Zposition Xrotation Yrotation Zrotation
			JOINT mixamorig:RightFoot
			{
				OFFSET 0.000003 -44.423679 -3.043532
				CHANNELS 6 Xposition Yposition Zposition Xrotation Yrotation Zrotation
				JOINT mixamorig:RightToeBase
				{
					OFFSET -0.000002 -8.728671 10.710558
					CHANNELS 6 Xposition Yposition Zposition Xrotation Yrotation Zrotation
					JOINT mixamorig:RightToe_End
					{
						OFFSET -0.000001 -0.000679 9.278119
						CHANNELS 6 Xposition Yposition Zposition Xrotation Yrotation Zrotation
						End Site
						{
							OFFSET 0.000000 -0.067690 927.812134
						}
					}
				}
			}
		}
	}
	JOINT mixamorig:LeftUpLeg
	{
		OFFSET 8.207793 -6.751686 -1.599556
		CHANNELS 6 Xposition Yposition Zposition Xrotation Yrotation Zrotation
		JOINT mixamorig:LeftLeg
		{
			OFFSET -0.000004 -44.370014 0.346954
			CHANNELS 6 Xposition Yposition Zposition Xrotation Yrotation Zrotation
			JOINT mixamorig:LeftFoot
			{
				OFFSET -0.000001 -44.423672 -3.044401
				CHANNELS 6 Xposition Yposition Zposition Xrotation Yrotation Zrotation
				JOINT mixamorig:LeftToeBase
				{
					OFFSET -0.000002 -8.728669 10.710558
					CHANNELS 6 Xposition Yposition Zposition Xrotation Yrotation Zrotation
					JOINT mixamorig:LeftToe_End
					{
						OFFSET -0.000003 -0.000679 9.278133
						CHANNELS 6 Xposition Yposition Zposition Xrotation Yrotation Zrotation
						End Site
						{
							OFFSET 0.000000 -0.068021 927.813477
						}
					}
				}
			}
		}
	}
}
MOTION
Frames: 3
Frame Time: 0.033333
0.000006 104.270477 1.554256 0.000010 0.000003 -0.000113 -0.000005 10.181587 0.131522 0.000001 -0.000003 0.000084 -0.000000 9.893967 -1.470711 0.000001 0.000000 -0.000000 -0.000000 9.220802 -1.370642 0.000000 -0.000000 -0.000000 0.000001 16.740433 -2.049030 0.000000 -0.000000 -0.000000 0.000000 9.617859 1.685014 0.000000 0.000000 0.000000 0.000002 22.037384 7.501101 0.000000 -0.000000 0.000000 -4.569968 11.014880 -2.160881 0.000008 0.000001 -0.000038 -10.592749 -0.524852 -2.231717 81.727428 73.634070 -65.853665 -27.841475 0.000023 0.000594 46.481275 111.097890 -64.091838 -28.328829 0.000006 0.000019 -0.000321 -0.000045 0.000007 -2.464408 -1.574039 2.682309 -5.615312 -133.245912 52.401170 -3.214817 -1.873004 1.924606 225.907619 -54.711728 280.897786 -2.654516 -1.528224 1.513025 35.502719 -131.378716 93.515009 -2.018837 -1.152027 1.108056 -0.000001 0.000003 -0.000000 -9.108305 -0.517917 2.260352 238.615555 13.969475 24.667957 -3.700007 0.000024 0.001760 233.660717 19.663146 37.807925 -2.850037 0.000026 0.000006 231.461505 17.240215 34.921982 -2.772179 -0.000016 -0.000019 -0.000003 -0.000000 0.000000 -9.532532 -0.000140 0.000460 247.078623 11.296652 17.103535 -3.700022 -0.000008 0.004255 237.630477 16.342947 29.172278 -2.950004 -0.000048 -0.001513 -123.597273 13.874729 25.561679 -2.946633 0.000001 -0.000165 0.000004 -0.000001 0.000000 -9.103638 -0.043146 -1.864658 247.906524 12.089558 17.836197 -3.379287 -0.000052 -0.000515 -122.150229 12.557410 22.540314 -2.889730 -0.000045 0.000908 -124.626009 9.570408 18.188686 -2.638815 0.000001 0.000933 0.000001 -0.000000 -0.000001 -8.076697 -0.486803 -3.805824 249.707099 14.866465 21.102870 -3.600008 -0.000127 -0.003238 -121.727426 8.527839 14.781854 -2.099999 -0.000106 -0.005249 -125.916532 5.351428 10.115932 -2.115776 -0.000027 -0.003674 0.000001 0.000001 -0.000003 4.570446 11.014691 -2.160851 -0.000018 0.000010 -0.000021 10.592529 -0.524543 -2.232398 69.266827 -66.243573 48.517132 27.841724 -0.000087 -0.000087 69.540977 -105.550438 84.843790 28.328831 -0.000012 0.000030 0.000023 -0.000090 0.000000 2.466205 -1.576095 2.681890 -128.776714 37.046557 62.169352 3.217814 -1.871979 1.916542 -98.652418 39.022028 43.288639 2.656063 -1.528751 1.514612 -100.026324 34.150379 42.898226 2.020887 -1.154070 1.115150 -0.000000 0.000002 0.000004 9.109285 -0.517855 2.260110 -92.198640 -14.110150 -14.648847 3.699942 0.000155 -0.000064 -92.994426 -20.330437 -21.405897 2.849963 0.000184 0.000581 -92.531025 -17.792294 -18.581694 2.774885 -0.000024 -0.000028 -0.000000 0.000002 0.000001 9.533373 0.000188 0.000259 -89.009195 -11.371900 -11.172665 3.699964 0.000179 0.000058 -94.282490 -14.972669 -16.119363 2.949963 0.000159 0.000191 -95.504350 -12.234689 -13.461615 2.952857 -0.000010 0.000064 0.000001 0.000001 -0.000003 9.104504 -0.042862 -1.864828 -87.856498 -10.791839 -10.398908 3.149968 0.000211 0.000297 -95.035532 -11.416150 -12.459687 2.949948 0.000197 0.000314 -95.606925 -7.975650 -8.795282 2.644321 0.000031 0.000062 0.000002 -0.000000 0.000002 8.077759 -0.486752 -3.806009 -81.637515 -10.373749 -9.291905 3.599940 0.000187 0.015001 -88.579180 -6.630482 -6.828751 2.099986 0.000208 0.007952 -92.530062 -4.110710 -4.686556 2.125502 0.000001 0.007508 -0.000001 -0.000001 0.000001 -8.207786 -6.751667 -1.599560 -0.077001 -0.000003 0.000080 -0.000002 -44.370110 0.345938 0.153719 -0.000000 -0.000000 0.000000 -44.423679 -3.043532 -0.076700 0.000000 -0.000002 -0.000006 -8.728667 10.710559 -0.000009 -0.000000 -0.000000 -0.000001 -0.000679 9.278123 0.000000 -0.000000 -0.000000 8.207792 -6.751710 -1.599556 -0.074518 -0.000003 0.000081 -0.000002 -44.370014 0.346960 0.148822 0.000002 0.000000 -0.000001 -44.423664 -3.044403 -0.074314 0.000000 -0.000002 -0.000004 -8.728671 10.710558 0.000007 -0.000000 -0.000000 0.000000 -0.000680 9.278137 -0.000000 0.000000 -0.000001 
0.000006 104.270477 1.554256 0.000010 0.000003 -0.000113 -0.000005 10.181587 0.131522 0.000001 -0.000003 0.000084 -0.000000 9.893967 -1.470711 0.000001 0.000000 -0.000000 -0.000000 9.220802 -1.370642 0.000000 -0.000000 -0.000000 0.000001 16.740433 -2.049030 0.000000 -0.000000 -0.000000 0.000000 9.617859 1.685014 0.000000 0.000000 0.000000 0.000002 22.037384 7.501101 0.000000 -0.000000 0.000000 -4.569968 11.014880 -2.160881 0.000008 0.000001 -0.000038 -10.592751 -0.524847 -2.231715 80.437505 73.326473 -64.378160 -27.841476 0.000006 0.000591 47.943963 109.716184 -64.559563 -28.328835 0.000006 0.000023 -0.000322 -0.000045 0.000007 -2.464449 -1.574121 2.682294 19.313417 -129.163371 79.248820 -3.214828 -1.873004 1.924598 228.797813 -54.111050 283.889026 -2.654507 -1.528206 1.513022 27.726299 -132.371771 86.375617 -2.018816 -1.151987 1.108068 -0.000000 0.000002 0.000007 -9.108323 -0.517998 2.260287 255.974863 10.404088 13.337555 -3.700026 -0.000036 0.001695 249.543010 19.471414 27.747377 -2.850045 -0.000026 0.000016 242.980155 17.562465 28.306187 -2.772160 0.000015 -0.000021 0.000000 -0.000001 0.000002 -9.532540 -0.000183 0.000419 259.385176 8.595387 10.462620 -3.700026 -0.000098 0.004177 250.745151 17.528439 24.434095 -2.950028 -0.000097 -0.001551 -115.444909 14.915212 23.410525 -2.946624 -0.000015 -0.000156 -0.000000 0.000001 -0.000000 -9.103642 -0.043190 -1.864695 256.588624 9.657760 12.177266 -3.379295 -0.000109 -0.000572 -111.018701 11.853462 17.201125 -2.889732 -0.000072 0.000870 -117.720523 8.461835 14.016508 -2.638809 -0.000000 0.000941 -0.000001 -0.000000 0.000000 -8.076682 -0.486818 -3.805836 252.428000 9.011509 12.148619 -3.599991 -0.000168 -0.003277 -113.619302 4.226487 6.017055 -2.099993 -0.000163 -0.005257 -120.956080 1.955751 3.111234 -2.115775 -0.000055 -0.003679 0.000000 0.000000 -0.000004 4.570446 11.014691 -2.160851 -0.000018 0.000010 -0.000021 10.592524 -0.524538 -2.232395 66.475390 -65.035122 45.347381 27.841719 -0.000070 -0.000092 75.043077 -104.856128 89.895760 28.328840 -0.000013 0.000016 0.000019 -0.000089 -0.000000 2.466187 -1.576110 2.681884 -133.529611 39.519242 67.473035 3.217814 -1.872013 1.916535 -112.194490 41.521328 53.649206 2.656054 -1.528755 1.514603 -118.241831 36.210323 56.108204 2.020887 -1.154068 1.115150 0.000001 0.000002 0.000004 9.109263 -0.517820 2.260113 -100.250306 -16.139551 -19.257054 3.699909 0.000167 -0.000069 -98.691992 -23.619356 -27.376658 2.849955 0.000211 0.000595 -96.630415 -20.253119 -22.681890 2.774879 -0.000010 -0.000022 -0.000003 0.000001 0.000000 9.533352 0.000227 0.000289 -97.065717 -13.026578 -14.717138 3.699949 0.000195 0.000013 -98.909226 -17.438844 -20.326766 2.949947 0.000193 0.000195 -99.226024 -14.174316 -16.632269 2.952867 0.000003 0.000047 -0.000000 -0.000002 -0.000000 9.104483 -0.042830 -1.864840 -97.871720 -12.723714 -14.586335 3.149971 0.000242 0.000283 -101.963509 -12.257409 -15.098217 2.949948 0.000248 0.000274 -103.026519 -8.716211 -10.952258 2.644319 0.000034 0.000070 0.000003 -0.000001 -0.000000 8.077742 -0.486666 -3.805994 -95.211136 -11.448498 -12.931691 3.599924 0.000240 0.014987 -101.233437 -6.620795 -8.508438 2.099972 0.000266 0.007967 -105.090008 -4.601843 -6.484975 2.125504 -0.000003 0.007516 -0.000001 -0.000000 -0.000000 -8.207786 -6.751667 -1.599560 -0.077001 -0.000003 0.000080 -0.000002 -44.370110 0.345938 0.153719 -0.000000 -0.000000 0.000000 -44.423679 -3.043532 -0.076700 0.000000 -0.000002 -0.000006 -8.728667 10.710559 -0.000009 -0.000000 -0.000000 -0.000001 -0.000679 9.278123 0.000000 -0.000000 -0.000000 8.207792 -6.751710 -1.599556 -0.074518 -0.000003 0.000081 -0.000002 -44.370014 0.346960 0.148822 0.000002 0.000000 -0.000001 -44.423664 -3.044403 -0.074314 0.000000 -0.000002 -0.000004 -8.728671 10.710558 0.000007 -0.000000 -0.000000 0.000000 -0.000680 9.278137 -0.000000 0.000000 -0.000001 
0.000006 104.270477 1.554256 0.000010 0.000003 -0.000113 -0.000005 10.181587 0.131522 0.000001 -0.000003 0.000084 -0.000000 9.893967 -1.470711 0.000001 0.000000 -0.000000 -0.000000 9.220802 -1.370642 0.000000 -0.000000 -0.000000 0.000001 16.740433 -2.049030 0.000000 -0.000000 -0.000000 0.000000 9.617859 1.685014 0.000000 0.000000 0.000000 0.000002 22.037384 7.501101 0.000000 -0.000000 0.000000 -4.569968 11.014880 -2.160881 0.000008 0.000001 -0.000038 -10.592750 -0.524841 -2.231718 81.228018 73.284433 -65.062524 -27.841488 0.000028 0.000586 50.775281 109.031778 -67.304479 -28.328829 0.000006 0.000024 -0.000325 -0.000045 0.000007 -2.464435 -1.574136 2.682226 30.033196 -120.421139 84.492432 -3.214873 -1.873019 1.924550 252.998157 -51.492796 305.395762 -2.654576 -1.528264 1.512976 57.367012 -135.388392 115.530437 -2.018831 -1.152005 1.108057 -0.000003 0.000000 0.000004 -9.108314 -0.517910 2.260346 241.386699 13.712949 22.945688 -3.699974 0.000087 0.001782 218.617881 18.976031 50.985211 -2.849983 0.000141 0.000058 210.463373 14.623126 50.460645 -2.772165 -0.000001 -0.000017 0.000002 -0.000000 0.000000 -9.532532 -0.000103 0.000480 243.226916 11.711671 19.057572 -3.699981 0.000049 0.004314 216.216673 15.291906 44.527926 -2.949958 0.000108 -0.001446 -154.625292 10.932502 46.045416 -2.946621 0.000014 -0.000160 0.000001 0.000000 0.000001 -9.103611 -0.043046 -1.864587 231.010603 16.112012 33.005653 -3.379142 0.000160 -0.000450 -163.043487 13.591829 77.292497 -2.889390 0.000186 0.000971 -176.703715 6.584115 126.565523 -2.638802 -0.000012 0.000936 -0.000001 0.000003 0.000000 -8.076683 -0.486653 -3.805730 220.462824 15.070616 39.318506 -3.599854 0.000131 -0.003157 -167.807134 7.718285 63.780832 -2.099559 0.000111 -0.005165 -179.262317 2.592440 154.631917 -2.115771 -0.000060 -0.003683 0.000001 0.000002 -0.000002 4.570446 11.014691 -2.160851 -0.000018 0.000010 -0.000021 10.592525 -0.524536 -2.232393 66.604979 -64.892896 45.336207 27.841728 -0.000079 -0.000105 80.035781 -104.322185 94.454467 28.328840 -0.000013 0.000038 0.000021 -0.000086 -0.000000 2.466156 -1.576159 2.681895 -128.153309 49.684828 69.224835 3.217831 -1.872011 1.916542 -98.300499 44.791076 45.355396 2.656030 -1.528764 1.514611 -95.082292 34.833401 40.134741 2.020895 -1.154057 1.115149 0.000001 0.000006 0.000004 9.109228 -0.517770 2.260108 -119.049924 -16.615106 -27.861257 3.699854 0.000226 -0.000094 -127.491642 -23.801579 -46.281898 2.849885 0.000284 0.000585 -127.252530 -19.775278 -38.736294 2.774880 -0.000028 -0.000042 0.000000 -0.000002 0.000003 9.533341 0.000304 0.000291 -118.584952 -16.067364 -26.727722 3.699858 0.000274 -0.000001 -125.513578 -21.916815 -41.216705 2.949899 0.000288 0.000161 -128.563817 -16.055685 -32.644599 2.952859 -0.000028 0.000068 0.000004 -0.000004 -0.000000 9.104435 -0.042770 -1.864847 -120.230058 -16.215764 -27.847439 3.149909 0.000349 0.000276 -129.076246 -13.130828 -27.178738 2.949915 0.000345 0.000241 -134.643533 -7.480723 -17.786444 2.644319 0.000029 0.000055 -0.000003 0.000001 0.000003 8.077709 -0.486586 -3.806019 -122.821882 -14.497937 -26.829126 3.599889 0.000384 0.014948 -132.526406 -7.792343 -18.361379 2.099958 0.000371 0.007900 -139.642070 -4.333751 -12.708002 2.125498 0.000001 0.007510 -0.000001 0.000002 -0.000001 -8.207786 -6.751667 -1.599560 -0.077001 -0.000003 0.000080 -0.000002 -44.370110 0.345938 0.153719 -0.000000 -0.000000 0.000000 -44.423679 -3.043532 -0.076700 0.000000 -0.000002 -0.000006 -8.728667 10.710559 -0.000009 -0.000000 -0.000000 -0.000001 -0.000679 9.278123 0.000000 -0.000000 -0.000000 8.207792 -6.751710 -1.599556 -0.074518 -0.000003 0.000081 -0.000002 -44.370014 0.346960 0.148822 0.000002 0.000000 -0.000001 -44.423664 -3.044403 -0.074314 0.000000 -0.000002 -0.000004 -8.728671 10.710558 0.000007 -0.000000 -0.000000 0.000000 -0.000680 9.278137 -0.000000 0.000000 -0.000001 
